<mxfile host="app.diagrams.net" modified="2023-04-26T09:02:28.406Z" agent="Mozilla/5.0 (Windows NT 10.0; Win64; x64; rv:109.0) Gecko/20100101 Firefox/112.0" etag="x86YFOwuyBkdjw9AZ10I" version="21.2.2" type="device">
  <diagram name="Pagina-1" id="_AKpupZpEcdU5p4sJwBD">
    <mxGraphModel dx="1434" dy="739" grid="1" gridSize="10" guides="1" tooltips="1" connect="1" arrows="1" fold="1" page="1" pageScale="1" pageWidth="827" pageHeight="1169" math="0" shadow="0">
      <root>
        <mxCell id="0" />
        <mxCell id="1" parent="0" />
        <mxCell id="X8tj8gzoSOqhYm-Tb45t-1" value="Actor" style="shape=umlActor;verticalLabelPosition=bottom;verticalAlign=top;html=1;outlineConnect=0;" vertex="1" parent="1">
          <mxGeometry x="30" y="200" width="30" height="60" as="geometry" />
        </mxCell>
        <mxCell id="X8tj8gzoSOqhYm-Tb45t-2" value="" style="rounded=0;whiteSpace=wrap;html=1;" vertex="1" parent="1">
          <mxGeometry x="120" y="90" width="680" height="440" as="geometry" />
        </mxCell>
        <mxCell id="X8tj8gzoSOqhYm-Tb45t-3" value="Caricare i voti" style="rounded=0;whiteSpace=wrap;html=1;" vertex="1" parent="1">
          <mxGeometry x="130" y="230" width="120" height="60" as="geometry" />
        </mxCell>
        <mxCell id="X8tj8gzoSOqhYm-Tb45t-7" style="edgeStyle=orthogonalEdgeStyle;rounded=0;orthogonalLoop=1;jettySize=auto;html=1;exitX=0;exitY=0.5;exitDx=0;exitDy=0;entryX=0.5;entryY=0;entryDx=0;entryDy=0;" edge="1" parent="1" source="X8tj8gzoSOqhYm-Tb45t-4" target="X8tj8gzoSOqhYm-Tb45t-3">
          <mxGeometry relative="1" as="geometry">
            <mxPoint x="320" y="250" as="targetPoint" />
          </mxGeometry>
        </mxCell>
        <mxCell id="X8tj8gzoSOqhYm-Tb45t-11" value="Include" style="edgeLabel;html=1;align=center;verticalAlign=middle;resizable=0;points=[];" vertex="1" connectable="0" parent="X8tj8gzoSOqhYm-Tb45t-7">
          <mxGeometry x="-0.12" relative="1" as="geometry">
            <mxPoint as="offset" />
          </mxGeometry>
        </mxCell>
        <mxCell id="X8tj8gzoSOqhYm-Tb45t-4" value="&lt;div&gt;selezionare &lt;br&gt;&lt;/div&gt;&lt;div&gt;materia&lt;br&gt;&lt;/div&gt;" style="rounded=0;whiteSpace=wrap;html=1;" vertex="1" parent="1">
          <mxGeometry x="570" y="130" width="120" height="60" as="geometry" />
        </mxCell>
        <mxCell id="X8tj8gzoSOqhYm-Tb45t-8" style="edgeStyle=orthogonalEdgeStyle;rounded=0;orthogonalLoop=1;jettySize=auto;html=1;exitX=0;exitY=0.5;exitDx=0;exitDy=0;entryX=1;entryY=0.5;entryDx=0;entryDy=0;" edge="1" parent="1" source="X8tj8gzoSOqhYm-Tb45t-5" target="X8tj8gzoSOqhYm-Tb45t-3">
          <mxGeometry relative="1" as="geometry">
            <mxPoint x="310" y="280" as="targetPoint" />
          </mxGeometry>
        </mxCell>
        <mxCell id="X8tj8gzoSOqhYm-Tb45t-10" value="Include" style="edgeLabel;html=1;align=center;verticalAlign=middle;resizable=0;points=[];" vertex="1" connectable="0" parent="X8tj8gzoSOqhYm-Tb45t-8">
          <mxGeometry x="-0.2375" y="-3" relative="1" as="geometry">
            <mxPoint as="offset" />
          </mxGeometry>
        </mxCell>
        <mxCell id="X8tj8gzoSOqhYm-Tb45t-5" value="&lt;div&gt;Selezionare &lt;br&gt;&lt;/div&gt;&lt;div&gt;classe&lt;br&gt;&lt;/div&gt;" style="rounded=0;whiteSpace=wrap;html=1;" vertex="1" parent="1">
          <mxGeometry x="660" y="260" width="120" height="60" as="geometry" />
        </mxCell>
        <mxCell id="X8tj8gzoSOqhYm-Tb45t-9" style="edgeStyle=orthogonalEdgeStyle;rounded=0;orthogonalLoop=1;jettySize=auto;html=1;exitX=0;exitY=0.5;exitDx=0;exitDy=0;entryX=0.5;entryY=1;entryDx=0;entryDy=0;" edge="1" parent="1" source="X8tj8gzoSOqhYm-Tb45t-6" target="X8tj8gzoSOqhYm-Tb45t-3">
          <mxGeometry relative="1" as="geometry">
            <mxPoint x="310" y="280" as="targetPoint" />
          </mxGeometry>
        </mxCell>
        <mxCell id="X8tj8gzoSOqhYm-Tb45t-12" value="Include" style="edgeLabel;html=1;align=center;verticalAlign=middle;resizable=0;points=[];" vertex="1" connectable="0" parent="X8tj8gzoSOqhYm-Tb45t-9">
          <mxGeometry x="-0.0857" y="2" relative="1" as="geometry">
            <mxPoint as="offset" />
          </mxGeometry>
        </mxCell>
        <mxCell id="X8tj8gzoSOqhYm-Tb45t-6" value="&lt;div&gt;Selezionare &lt;br&gt;&lt;/div&gt;&lt;div&gt;alunno&lt;br&gt;&lt;/div&gt;" style="rounded=0;whiteSpace=wrap;html=1;" vertex="1" parent="1">
          <mxGeometry x="570" y="400" width="120" height="60" as="geometry" />
        </mxCell>
        <mxCell id="X8tj8gzoSOqhYm-Tb45t-16" value="Insegnante" style="text;html=1;align=center;verticalAlign=middle;resizable=0;points=[];autosize=1;strokeColor=none;fillColor=none;" vertex="1" parent="1">
          <mxGeometry y="270" width="90" height="30" as="geometry" />
        </mxCell>
        <mxCell id="X8tj8gzoSOqhYm-Tb45t-18" value="include" style="edgeStyle=orthogonalEdgeStyle;rounded=0;orthogonalLoop=1;jettySize=auto;html=1;exitX=0;exitY=0.5;exitDx=0;exitDy=0;entryX=0.75;entryY=1;entryDx=0;entryDy=0;" edge="1" parent="1" source="X8tj8gzoSOqhYm-Tb45t-17" target="X8tj8gzoSOqhYm-Tb45t-3">
          <mxGeometry relative="1" as="geometry" />
        </mxCell>
        <mxCell id="X8tj8gzoSOqhYm-Tb45t-17" value="registazione" style="rounded=0;whiteSpace=wrap;html=1;" vertex="1" parent="1">
          <mxGeometry x="310" y="320" width="120" height="60" as="geometry" />
        </mxCell>
      </root>
    </mxGraphModel>
  </diagram>
</mxfile>
